[h264 @ 0x5654d5105c00] Reinit context to 848x480, pix_fmt: yuv420p
Input #0, mov,mp4,m4a,3gp,3g2,mj2, from '/var/www/html/project/media/video/original/1000118956.mp4':
  Metadata:
    major_brand     : mp42
    minor_version   : 0
    compatible_brands: mp42isom
  Duration: 00:00:13.97, start: 0.000000, bitrate: 1528 kb/s
    Stream #0:0(und): Video: h264 (High), 1 reference frame (avc1 / 0x31637661), yuv420p(tv, smpte170m/bt470bg/smpte170m, left), 848x478 (848x480), 1269 kb/s, 29.79 fps, 29.75 tbr, 90k tbn, 180k tbc (default)
    Stream #0:1(und): Audio: aac (LC) (mp4a / 0x6134706D), 48000 Hz, stereo, fltp, 256 kb/s (default)
Input #1, png_pipe, from '/var/www/html/project/static/images/templates/logo.png':
  Duration: N/A, bitrate: N/A
    Stream #1:0: Video: png, 1 reference frame, rgba(pc), 1920x1080 [SAR 2835:2835 DAR 16:9], 25 tbr, 25 tbn, 25 tbc
[h264 @ 0x5654d5157e00] Reinit context to 1280x720, pix_fmt: yuv420p
Input #2, mov,mp4,m4a,3gp,3g2,mj2, from '/var/www/html/project/static/images/templates/Codino.mp4':
  Metadata:
    major_brand     : mp42
    minor_version   : 1
    compatible_brands: isommp41mp42
    creation_time   : 2021-07-11T07:02:58.000000Z
  Duration: 00:00:02.00, start: 0.000000, bitrate: 1007 kb/s
    Stream #2:0(ita): Audio: aac (LC) (mp4a / 0x6134706D), 44100 Hz, stereo, fltp, 102 kb/s (default)
    Metadata:
      creation_time   : 2021-07-11T07:02:58.000000Z
      handler_name    : Core Media Audio
    Stream #2:1(und): Video: h264 (High), 1 reference frame (avc1 / 0x31637661), yuv420p(tv, bt709, progressive, left), 1280x720 [SAR 1:1 DAR 16:9], 813 kb/s, 25 fps, 25 tbr, 25k tbn, 50k tbc (default)
    Metadata:
      creation_time   : 2021-07-11T07:02:58.000000Z
      handler_name    : Core Media Video
[Parsed_scale_0 @ 0x5654d5258cc0] w:1280 h:720 flags:'bilinear' interl:0
[Parsed_scale_2 @ 0x5654d51eb640] w:1280 h:720 flags:'bilinear' interl:0
[Parsed_scale_4 @ 0x5654d51eaf40] w:1280 h:720 flags:'bilinear' interl:0
Stream mapping:
  Stream #0:0 (h264) -> scale
  Stream #0:1 (aac) -> concat:in0:a0
  Stream #1:0 (png) -> scale
  Stream #2:0 (aac) -> concat:in1:a0
  Stream #2:1 (h264) -> scale
  concat:out:v0 -> Stream #0:0 (libx264)
  concat:out:a0 -> Stream #0:1 (aac)
Press [q] to stop, [?] for help
[h264 @ 0x5654d524d1c0] Reinit context to 848x480, pix_fmt: yuv420p
[h264 @ 0x5654d55ac280] Reinit context to 1280x720, pix_fmt: yuv420p
[Parsed_scale_0 @ 0x5654d60ecf00] w:1280 h:720 flags:'bilinear' interl:0
[Parsed_scale_2 @ 0x5654d60f5b80] w:1280 h:720 flags:'bilinear' interl:0
[Parsed_scale_4 @ 0x5654d60f6d40] w:1280 h:720 flags:'bilinear' interl:0
[graph 0 input from stream 0:0 @ 0x5654d60fb600] w:848 h:478 pixfmt:yuv420p tb:1/90000 fr:119/4 sar:0/1 sws_param:flags=2
[graph 0 input from stream 1:0 @ 0x5654d60fc680] w:1920 h:1080 pixfmt:rgba tb:1/25 fr:25/1 sar:2835/2835 sws_param:flags=2
[graph 0 input from stream 2:1 @ 0x5654d60fd700] w:1280 h:720 pixfmt:yuv420p tb:1/25000 fr:25/1 sar:1/1 sws_param:flags=2
[graph_0_in_0_1 @ 0x5654d60fe6c0] tb:1/48000 samplefmt:fltp samplerate:48000 chlayout:0x3
[graph_0_in_2_0 @ 0x5654d60ff800] tb:1/44100 samplefmt:fltp samplerate:44100 chlayout:0x3
[Parsed_concat_7 @ 0x5654d60f9640] auto-inserting filter 'auto_resampler_0' between the filter 'graph_0_in_2_0' and the filter 'Parsed_concat_7'
[Parsed_scale_0 @ 0x5654d60ecf00] w:848 h:478 fmt:yuv420p sar:0/1 -> w:1280 h:720 fmt:yuv420p sar:0/1 flags:0x2
[Parsed_setsar_1 @ 0x5654d60ed300] w:1280 h:720 sar:0/1 dar:16/9 -> sar:1/1 dar:16/9
[Parsed_scale_2 @ 0x5654d60f5b80] w:1920 h:1080 fmt:rgba sar:2835/2835 -> w:1280 h:720 fmt:yuva420p sar:1/1 flags:0x2
[Parsed_setsar_3 @ 0x5654d60f6000] w:1280 h:720 sar:1/1 dar:16/9 -> sar:1/1 dar:16/9
[Parsed_overlay_6 @ 0x5654d60f8480] main w:1280 h:720 fmt:yuv420p overlay w:1280 h:720 fmt:yuva420p
[Parsed_overlay_6 @ 0x5654d60f8480] [framesync @ 0x5654d60f85e8] Selected 1/90000 time base
[Parsed_overlay_6 @ 0x5654d60f8480] [framesync @ 0x5654d60f85e8] Sync level 2
[Parsed_scale_4 @ 0x5654d60f6d40] w:1280 h:720 fmt:yuv420p sar:1/1 -> w:1280 h:720 fmt:yuv420p sar:1/1 flags:0x2
[Parsed_setsar_5 @ 0x5654d60f7800] w:1280 h:720 sar:1/1 dar:16/9 -> sar:1/1 dar:16/9
[auto_resampler_0 @ 0x5654d6106f80] ch:2 chl:stereo fmt:fltp r:44100Hz -> ch:2 chl:stereo fmt:fltp r:48000Hz
[libx264 @ 0x5654d51363c0] using SAR=1/1
[libx264 @ 0x5654d51363c0] using cpu capabilities: MMX2 SSE2Fast SSSE3 SSE4.2 AVX FMA3 BMI2 AVX2
[libx264 @ 0x5654d51363c0] profile High, level 3.1
[libx264 @ 0x5654d51363c0] 264 - core 155 r2917 0a84d98 - H.264/MPEG-4 AVC codec - Copyleft 2003-2018 - http://www.videolan.org/x264.html - options: cabac=1 ref=1 deblock=1:0:0 analyse=0x3:0x113 me=hex subme=2 psy=1 psy_rd=1.00:0.00 mixed_ref=0 me_range=16 chroma_me=1 trellis=0 8x8dct=1 cqm=0 deadzone=21,11 fast_pskip=1 chroma_qp_offset=0 threads=22 lookahead_threads=5 sliced_threads=0 nr=0 decimate=1 interlaced=0 bluray_compat=0 constrained_intra=0 bframes=3 b_pyramid=2 b_adapt=1 b_bias=0 direct=1 weightb=1 open_gop=0 weightp=1 keyint=250 keyint_min=25 scenecut=40 intra_refresh=0 rc_lookahead=10 rc=crf mbtree=1 crf=18.0 qcomp=0.60 qpmin=0 qpmax=69 qpstep=4 ip_ratio=1.40 aq=1:1.00
Output #0, mp4, to '/var/www/html/project/media/video/watermarks/1000118956.mp4':
  Metadata:
    major_brand     : mp42
    minor_version   : 0
    compatible_brands: mp42isom
    encoder         : Lavf58.29.100
    Stream #0:0: Video: h264 (libx264), 1 reference frame (avc1 / 0x31637661), yuv420p(progressive), 1280x720 [SAR 1:1 DAR 16:9], q=-1--1, 29.75 fps, 15232 tbn, 29.75 tbc (default)
    Metadata:
      encoder         : Lavc58.54.100 libx264
    Side data:
      cpb: bitrate max/min/avg: 0/0/0 buffer size: 0 vbv_delay: -1
    Stream #0:1: Audio: aac (LC) (mp4a / 0x6134706D), 48000 Hz, stereo, fltp, delay 1024, 128 kb/s (default)
    Metadata:
      encoder         : Lavc58.54.100 aac
[Parsed_overlay_6 @ 0x5654d60f8480] [framesync @ 0x5654d60f85e8] Sync level 0
[Parsed_concat_7 @ 0x5654d60f9640] EOF on in0:v0, 1 streams left in segment.
[Parsed_concat_7 @ 0x5654d60f9640] EOF on in0:a0, 0 streams left in segment.
[Parsed_concat_7 @ 0x5654d60f9640] Segment finished at pts=13965303
[Parsed_concat_7 @ 0x5654d60f9640] EOF on in1:v0, 1 streams left in segment.
[Parsed_concat_7 @ 0x5654d60f9640] EOF on in1:a0, 0 streams left in segment.
[Parsed_concat_7 @ 0x5654d60f9640] Segment finished at pts=15983990
No more output streams to write to, finishing.
frame=  466 fps=170 q=-1.0 Lsize=   11072kB time=00:00:16.00 bitrate=5668.7kbits/s speed=5.83x    
[AVIOContext @ 0x5654d5103ec0] Statistics: 0 seeks, 6 writeouts
video:10815kB audio:239kB subtitle:0kB other streams:0kB global headers:0kB muxing overhead: 0.162236%
Input file #0 (/var/www/html/project/media/video/original/1000118956.mp4):
  Input stream #0:0 (video): 416 packets read (2215661 bytes); 416 frames decoded; 
  Input stream #0:1 (audio): 652 packets read (445162 bytes); 652 frames decoded (667648 samples); 
  Total: 1068 packets (2660823 bytes) demuxed
Input file #1 (/var/www/html/project/static/images/templates/logo.png):
  Input stream #1:0 (video): 1 packets read (111578 bytes); 1 frames decoded; 
  Total: 1 packets (111578 bytes) demuxed
Input file #2 (/var/www/html/project/static/images/templates/Codino.mp4):
  Input stream #2:0 (audio): 89 packets read (26579 bytes); 87 frames decoded (89024 samples); 
  Input stream #2:1 (video): 50 packets read (203365 bytes); 50 frames decoded; 
  Total: 139 packets (229944 bytes) demuxed
Output file #0 (/var/www/html/project/media/video/watermarks/1000118956.mp4):
  Output stream #0:0 (video): 466 frames encoded; 466 packets muxed (11074363 bytes); 
  Output stream #0:1 (audio): 750 frames encoded (767216 samples); 751 packets muxed (244939 bytes); 
  Total: 1217 packets (11319302 bytes) muxed
[AVIOContext @ 0x5654d51372c0] Statistics: 2 seeks, 47 writeouts
[libx264 @ 0x5654d51363c0] frame I:3     Avg QP:13.14  size: 82931
[libx264 @ 0x5654d51363c0] frame P:146   Avg QP:18.07  size: 42816
[libx264 @ 0x5654d51363c0] frame B:317   Avg QP:22.05  size: 14428
[libx264 @ 0x5654d51363c0] consecutive B-frames:  6.2%  5.6% 10.9% 77.3%
[libx264 @ 0x5654d51363c0] mb I  I16..4: 36.5%  8.6% 54.9%
[libx264 @ 0x5654d51363c0] mb P  I16..4:  6.7% 11.0%  6.2%  P16..4: 23.9% 17.5% 14.1%  0.0%  0.0%    skip:20.7%
[libx264 @ 0x5654d51363c0] mb B  I16..4:  1.3%  1.2%  0.1%  B16..8: 27.0% 14.5%  2.8%  direct:17.2%  skip:35.8%  L0:36.2% L1:38.9% BI:24.9%
[libx264 @ 0x5654d51363c0] 8x8 transform intra:43.9% inter:29.7%
[libx264 @ 0x5654d51363c0] coded y,uvDC,uvAC intra: 58.7% 49.3% 15.8% inter: 27.6% 11.3% 0.9%
[libx264 @ 0x5654d51363c0] i16 v,h,dc,p: 56% 26% 13%  6%
[libx264 @ 0x5654d51363c0] i8 v,h,dc,ddl,ddr,vr,hd,vl,hu: 22% 32% 16%  4%  5%  4%  7%  4%  6%
[libx264 @ 0x5654d51363c0] i4 v,h,dc,ddl,ddr,vr,hd,vl,hu: 23% 30% 13%  5%  6%  5%  8%  4%  7%
[libx264 @ 0x5654d51363c0] i8c dc,h,v,p: 56% 23% 17%  5%
[libx264 @ 0x5654d51363c0] Weighted P-Frames: Y:26.0% UV:0.7%
[libx264 @ 0x5654d51363c0] kb/s:5548.49
[aac @ 0x5654d5138c40] Qavg: 4698.488
[AVIOContext @ 0x5654d510ce40] Statistics: 2669063 bytes read, 0 seeks
[AVIOContext @ 0x5654d510b500] Statistics: 111578 bytes read, 0 seeks
[AVIOContext @ 0x5654d51359c0] Statistics: 1530915 bytes read, 42 seeks
